# 3ds Max Wavefront OBJ Exporter v0.97b - (c)2007 guruware
# File Created: 16.04.2018 18:02:13

#
# object Cylinder001
#

v  9.0000 -0.0001 -0.0000
v  8.8271 -0.0001 -1.7558
v  6.6203 -0.0001 -1.3169
v  6.7500 -0.0001 -0.0000
v  8.3149 -0.0001 -3.4442
v  6.2362 -0.0001 -2.5831
v  7.4832 -0.0001 -5.0001
v  5.6124 -0.0001 -3.7501
v  6.3640 -0.0001 -6.3640
v  4.7730 -0.0001 -4.7730
v  5.0001 -0.0001 -7.4832
v  3.7501 -0.0001 -5.6124
v  3.4442 -0.0001 -8.3149
v  2.5831 -0.0001 -6.2362
v  1.7558 -0.0001 -8.8271
v  1.3169 -0.0001 -6.6203
v  0.0000 -0.0001 -9.0000
v  0.0000 -0.0001 -6.7500
v  -1.7558 -0.0001 -8.8271
v  -1.3169 -0.0001 -6.6203
v  -3.4441 -0.0001 -8.3149
v  -2.5831 -0.0001 -6.2362
v  -5.0001 -0.0001 -7.4832
v  -3.7501 -0.0001 -5.6124
v  -6.3640 -0.0001 -6.3640
v  -4.7730 -0.0001 -4.7730
v  -7.4832 -0.0001 -5.0001
v  -5.6124 -0.0001 -3.7501
v  -8.3149 -0.0001 -3.4441
v  -6.2362 -0.0001 -2.5831
v  -8.8271 -0.0001 -1.7558
v  -6.6203 -0.0001 -1.3169
v  -9.0000 -0.0001 0.0000
v  -6.7500 -0.0001 0.0000
v  -8.8271 -0.0001 1.7558
v  -6.6203 -0.0001 1.3169
v  -8.3149 -0.0001 3.4442
v  -6.2362 -0.0001 2.5831
v  -7.4832 -0.0001 5.0001
v  -5.6124 -0.0001 3.7501
v  -6.3640 -0.0001 6.3640
v  -4.7730 -0.0001 4.7730
v  -5.0001 -0.0001 7.4832
v  -3.7501 -0.0001 5.6124
v  -3.4441 -0.0001 8.3149
v  -2.5831 -0.0001 6.2362
v  -1.7558 -0.0001 8.8271
v  -1.3169 -0.0001 6.6203
v  0.0000 -0.0001 9.0000
v  0.0000 -0.0001 6.7500
v  1.7558 -0.0001 8.8271
v  1.3169 -0.0001 6.6203
v  3.4442 -0.0001 8.3149
v  2.5831 -0.0001 6.2362
v  5.0001 -0.0001 7.4832
v  3.7501 -0.0001 5.6124
v  6.3640 -0.0001 6.3640
v  4.7730 -0.0001 4.7730
v  7.4832 -0.0001 5.0001
v  5.6124 -0.0001 3.7501
v  8.3149 -0.0001 3.4441
v  6.2362 -0.0001 2.5831
v  8.8271 -0.0001 1.7558
v  6.6203 -0.0001 1.3168
v  4.4135 -0.0001 -0.8779
v  4.5000 -0.0001 -0.0000
v  4.1575 -0.0001 -1.7221
v  3.7416 -0.0001 -2.5001
v  3.1820 -0.0001 -3.1820
v  2.5001 -0.0001 -3.7416
v  1.7221 -0.0001 -4.1575
v  0.8779 -0.0001 -4.4135
v  0.0000 -0.0001 -4.5000
v  -0.8779 -0.0001 -4.4135
v  -1.7221 -0.0001 -4.1575
v  -2.5001 -0.0001 -3.7416
v  -3.1820 -0.0001 -3.1820
v  -3.7416 -0.0001 -2.5001
v  -4.1575 -0.0001 -1.7221
v  -4.4135 -0.0001 -0.8779
v  -4.5000 -0.0001 0.0000
v  -4.4135 -0.0001 0.8779
v  -4.1575 -0.0001 1.7221
v  -3.7416 -0.0001 2.5001
v  -3.1820 -0.0001 3.1820
v  -2.5001 -0.0001 3.7416
v  -1.7221 -0.0001 4.1575
v  -0.8779 -0.0001 4.4135
v  0.0000 -0.0001 4.5000
v  0.8779 -0.0001 4.4135
v  1.7221 -0.0001 4.1575
v  2.5001 -0.0001 3.7416
v  3.1820 -0.0001 3.1820
v  3.7416 -0.0001 2.5001
v  4.1575 -0.0001 1.7221
v  4.4135 -0.0001 0.8779
v  2.2068 -0.0001 -0.4390
v  2.2500 -0.0001 -0.0000
v  2.0787 -0.0001 -0.8610
v  1.8708 -0.0001 -1.2500
v  1.5910 -0.0001 -1.5910
v  1.2500 -0.0001 -1.8708
v  0.8610 -0.0001 -2.0787
v  0.4390 -0.0001 -2.2068
v  0.0000 -0.0001 -2.2500
v  -0.4390 -0.0001 -2.2068
v  -0.8610 -0.0001 -2.0787
v  -1.2500 -0.0001 -1.8708
v  -1.5910 -0.0001 -1.5910
v  -1.8708 -0.0001 -1.2500
v  -2.0787 -0.0001 -0.8610
v  -2.2068 -0.0001 -0.4390
v  -2.2500 -0.0001 0.0000
v  -2.2068 -0.0001 0.4390
v  -2.0787 -0.0001 0.8610
v  -1.8708 -0.0001 1.2500
v  -1.5910 -0.0001 1.5910
v  -1.2500 -0.0001 1.8708
v  -0.8610 -0.0001 2.0787
v  -0.4390 -0.0001 2.2068
v  0.0000 -0.0001 2.2500
v  0.4390 -0.0001 2.2068
v  0.8610 -0.0001 2.0787
v  1.2500 -0.0001 1.8708
v  1.5910 -0.0001 1.5910
v  1.8708 -0.0001 1.2500
v  2.0787 -0.0001 0.8610
v  2.2068 -0.0001 0.4389
v  0.3937 -0.0001 -0.0000
v  0.3862 -0.0001 -0.0768
v  0.3638 -0.0001 -0.1507
v  0.3274 -0.0001 -0.2188
v  0.2784 -0.0001 -0.2784
v  0.2188 -0.0001 -0.3274
v  0.1507 -0.0001 -0.3638
v  0.0768 -0.0001 -0.3862
v  0.0000 -0.0001 -0.3937
v  -0.0768 -0.0001 -0.3862
v  -0.1507 -0.0001 -0.3638
v  -0.2188 -0.0001 -0.3274
v  -0.2784 -0.0001 -0.2784
v  -0.3274 -0.0001 -0.2188
v  -0.3638 -0.0001 -0.1507
v  -0.3862 -0.0001 -0.0768
v  -0.3937 -0.0001 0.0000
v  -0.3862 -0.0001 0.0768
v  -0.3638 -0.0001 0.1507
v  -0.3274 -0.0001 0.2188
v  -0.2784 -0.0001 0.2784
v  -0.2188 -0.0001 0.3274
v  -0.1507 -0.0001 0.3638
v  -0.0768 -0.0001 0.3862
v  0.0000 -0.0001 0.3937
v  0.0768 -0.0001 0.3862
v  0.1507 -0.0001 0.3638
v  0.2188 -0.0001 0.3274
v  0.2784 -0.0001 0.2784
v  0.3274 -0.0001 0.2188
v  0.3638 -0.0001 0.1507
v  0.3862 -0.0001 0.0768
# 160 vertices

vn 0.0000 1.0000 -0.0000
# 1 vertex normals

vt 1.0000 1.0000 0.0000
vt 0.9708 1.0000 0.0000
vt 0.9708 0.7389 0.0000
vt 1.0000 0.7389 0.0000
vt 0.9394 1.0000 0.0000
vt 0.9394 0.7389 0.0000
vt 0.9080 1.0000 0.0000
vt 0.9080 0.7389 0.0000
vt 0.8766 1.0000 0.0000
vt 0.8766 0.7389 0.0000
vt 0.8452 1.0000 0.0000
vt 0.8452 0.7389 0.0000
vt 0.8139 1.0000 0.0000
vt 0.8139 0.7389 0.0000
vt 0.7825 1.0000 0.0000
vt 0.7825 0.7389 0.0000
vt 0.7511 1.0000 0.0000
vt 0.7511 0.7389 0.0000
vt 0.7197 1.0000 0.0000
vt 0.7197 0.7389 0.0000
vt 0.6883 1.0000 0.0000
vt 0.6883 0.7389 0.0000
vt 0.6569 1.0000 0.0000
vt 0.6569 0.7389 0.0000
vt 0.6255 1.0000 0.0000
vt 0.6255 0.7389 0.0000
vt 0.5942 1.0000 0.0000
vt 0.5942 0.7389 0.0000
vt 0.5628 1.0000 0.0000
vt 0.5628 0.7389 0.0000
vt 0.5314 1.0000 0.0000
vt 0.5314 0.7389 0.0000
vt 0.5000 1.0000 0.0000
vt 0.5000 0.7389 0.0000
vt 0.4686 1.0000 0.0000
vt 0.4686 0.7389 0.0000
vt 0.4372 1.0000 0.0000
vt 0.4372 0.7389 0.0000
vt 0.4058 1.0000 0.0000
vt 0.4058 0.7389 0.0000
vt 0.3745 1.0000 0.0000
vt 0.3745 0.7389 0.0000
vt 0.3431 1.0000 0.0000
vt 0.3431 0.7389 0.0000
vt 0.3117 1.0000 0.0000
vt 0.3117 0.7389 0.0000
vt 0.2803 1.0000 0.0000
vt 0.2803 0.7389 0.0000
vt 0.2489 1.0000 0.0000
vt 0.2489 0.7389 0.0000
vt 0.2175 1.0000 0.0000
vt 0.2175 0.7389 0.0000
vt 0.1861 1.0000 0.0000
vt 0.1861 0.7389 0.0000
vt 0.1548 1.0000 0.0000
vt 0.1548 0.7389 0.0000
vt 0.1234 1.0000 0.0000
vt 0.1234 0.7389 0.0000
vt 0.0920 1.0000 0.0000
vt 0.0920 0.7389 0.0000
vt 0.0606 1.0000 0.0000
vt 0.0606 0.7389 0.0000
vt 0.0292 1.0000 0.0000
vt 0.0292 0.7389 0.0000
vt 0.0000 1.0000 0.0000
vt 0.0000 0.7389 0.0000
vt 0.9708 0.4771 0.0000
vt 1.0000 0.4771 0.0000
vt 0.9394 0.4771 0.0000
vt 0.9080 0.4771 0.0000
vt 0.8766 0.4771 0.0000
vt 0.8452 0.4771 0.0000
vt 0.8139 0.4771 0.0000
vt 0.7825 0.4771 0.0000
vt 0.7511 0.4771 0.0000
vt 0.7197 0.4771 0.0000
vt 0.6883 0.4771 0.0000
vt 0.6569 0.4771 0.0000
vt 0.6255 0.4771 0.0000
vt 0.5942 0.4771 0.0000
vt 0.5628 0.4771 0.0000
vt 0.5314 0.4771 0.0000
vt 0.5000 0.4771 0.0000
vt 0.4686 0.4771 0.0000
vt 0.4372 0.4771 0.0000
vt 0.4058 0.4771 0.0000
vt 0.3745 0.4771 0.0000
vt 0.3431 0.4771 0.0000
vt 0.3117 0.4771 0.0000
vt 0.2803 0.4771 0.0000
vt 0.2489 0.4771 0.0000
vt 0.2175 0.4771 0.0000
vt 0.1861 0.4771 0.0000
vt 0.1548 0.4771 0.0000
vt 0.1234 0.4771 0.0000
vt 0.0920 0.4771 0.0000
vt 0.0606 0.4771 0.0000
vt 0.0292 0.4771 0.0000
vt 0.0000 0.4771 0.0000
vt 0.9708 0.2305 0.0000
vt 1.0000 0.2305 0.0000
vt 0.9394 0.2305 0.0000
vt 0.9080 0.2305 0.0000
vt 0.8766 0.2305 0.0000
vt 0.8452 0.2305 0.0000
vt 0.8139 0.2305 0.0000
vt 0.7825 0.2305 0.0000
vt 0.7511 0.2305 0.0000
vt 0.7197 0.2305 0.0000
vt 0.6883 0.2305 0.0000
vt 0.6569 0.2305 0.0000
vt 0.6255 0.2305 0.0000
vt 0.5942 0.2305 0.0000
vt 0.5628 0.2305 0.0000
vt 0.5314 0.2305 0.0000
vt 0.5000 0.2305 0.0000
vt 0.4686 0.2305 0.0000
vt 0.4372 0.2305 0.0000
vt 0.4058 0.2305 0.0000
vt 0.3745 0.2305 0.0000
vt 0.3431 0.2305 0.0000
vt 0.3117 0.2305 0.0000
vt 0.2803 0.2305 0.0000
vt 0.2489 0.2305 0.0000
vt 0.2175 0.2305 0.0000
vt 0.1861 0.2305 0.0000
vt 0.1548 0.2305 0.0000
vt 0.1234 0.2305 0.0000
vt 0.0920 0.2305 0.0000
vt 0.0606 0.2305 0.0000
vt 0.0292 0.2305 0.0000
vt 0.0000 0.2305 0.0000
vt 1.0000 0.0000 0.0000
vt 0.9708 0.0000 0.0000
vt 0.9394 0.0000 0.0000
vt 0.9080 0.0000 0.0000
vt 0.8766 0.0000 0.0000
vt 0.8452 0.0000 0.0000
vt 0.8139 0.0000 0.0000
vt 0.7825 0.0000 0.0000
vt 0.7511 0.0000 0.0000
vt 0.7197 0.0000 0.0000
vt 0.6883 0.0000 0.0000
vt 0.6569 0.0000 0.0000
vt 0.6255 0.0000 0.0000
vt 0.5942 0.0000 0.0000
vt 0.5628 0.0000 0.0000
vt 0.5314 0.0000 0.0000
vt 0.5000 0.0000 0.0000
vt 0.4686 0.0000 0.0000
vt 0.4372 0.0000 0.0000
vt 0.4058 0.0000 0.0000
vt 0.3745 0.0000 0.0000
vt 0.3431 0.0000 0.0000
vt 0.3117 -0.0000 0.0000
vt 0.2803 -0.0000 0.0000
vt 0.2489 -0.0000 0.0000
vt 0.2175 -0.0000 0.0000
vt 0.1861 -0.0000 0.0000
vt 0.1548 -0.0000 0.0000
vt 0.1234 -0.0000 0.0000
vt 0.0920 -0.0000 0.0000
vt 0.0606 -0.0000 0.0000
vt 0.0292 -0.0000 0.0000
vt 0.0000 -0.0000 0.0000
# 165 texture coords

o Cylinder001
g Cylinder001
f 1/1/1 2/2/1 3/3/1 4/4/1 
f 2/2/1 5/5/1 6/6/1 3/3/1 
f 5/5/1 7/7/1 8/8/1 6/6/1 
f 7/7/1 9/9/1 10/10/1 8/8/1 
f 9/9/1 11/11/1 12/12/1 10/10/1 
f 11/11/1 13/13/1 14/14/1 12/12/1 
f 13/13/1 15/15/1 16/16/1 14/14/1 
f 15/15/1 17/17/1 18/18/1 16/16/1 
f 17/17/1 19/19/1 20/20/1 18/18/1 
f 19/19/1 21/21/1 22/22/1 20/20/1 
f 21/21/1 23/23/1 24/24/1 22/22/1 
f 23/23/1 25/25/1 26/26/1 24/24/1 
f 25/25/1 27/27/1 28/28/1 26/26/1 
f 27/27/1 29/29/1 30/30/1 28/28/1 
f 29/29/1 31/31/1 32/32/1 30/30/1 
f 31/31/1 33/33/1 34/34/1 32/32/1 
f 33/33/1 35/35/1 36/36/1 34/34/1 
f 35/35/1 37/37/1 38/38/1 36/36/1 
f 37/37/1 39/39/1 40/40/1 38/38/1 
f 39/39/1 41/41/1 42/42/1 40/40/1 
f 41/41/1 43/43/1 44/44/1 42/42/1 
f 43/43/1 45/45/1 46/46/1 44/44/1 
f 45/45/1 47/47/1 48/48/1 46/46/1 
f 47/47/1 49/49/1 50/50/1 48/48/1 
f 49/49/1 51/51/1 52/52/1 50/50/1 
f 51/51/1 53/53/1 54/54/1 52/52/1 
f 53/53/1 55/55/1 56/56/1 54/54/1 
f 55/55/1 57/57/1 58/58/1 56/56/1 
f 57/57/1 59/59/1 60/60/1 58/58/1 
f 59/59/1 61/61/1 62/62/1 60/60/1 
f 61/61/1 63/63/1 64/64/1 62/62/1 
f 63/63/1 1/65/1 4/66/1 64/64/1 
f 4/4/1 3/3/1 65/67/1 66/68/1 
f 3/3/1 6/6/1 67/69/1 65/67/1 
f 6/6/1 8/8/1 68/70/1 67/69/1 
f 8/8/1 10/10/1 69/71/1 68/70/1 
f 10/10/1 12/12/1 70/72/1 69/71/1 
f 12/12/1 14/14/1 71/73/1 70/72/1 
f 14/14/1 16/16/1 72/74/1 71/73/1 
f 16/16/1 18/18/1 73/75/1 72/74/1 
f 18/18/1 20/20/1 74/76/1 73/75/1 
f 20/20/1 22/22/1 75/77/1 74/76/1 
f 22/22/1 24/24/1 76/78/1 75/77/1 
f 24/24/1 26/26/1 77/79/1 76/78/1 
f 26/26/1 28/28/1 78/80/1 77/79/1 
f 28/28/1 30/30/1 79/81/1 78/80/1 
f 30/30/1 32/32/1 80/82/1 79/81/1 
f 32/32/1 34/34/1 81/83/1 80/82/1 
f 34/34/1 36/36/1 82/84/1 81/83/1 
f 36/36/1 38/38/1 83/85/1 82/84/1 
f 38/38/1 40/40/1 84/86/1 83/85/1 
f 40/40/1 42/42/1 85/87/1 84/86/1 
f 42/42/1 44/44/1 86/88/1 85/87/1 
f 44/44/1 46/46/1 87/89/1 86/88/1 
f 46/46/1 48/48/1 88/90/1 87/89/1 
f 48/48/1 50/50/1 89/91/1 88/90/1 
f 50/50/1 52/52/1 90/92/1 89/91/1 
f 52/52/1 54/54/1 91/93/1 90/92/1 
f 54/54/1 56/56/1 92/94/1 91/93/1 
f 56/56/1 58/58/1 93/95/1 92/94/1 
f 58/58/1 60/60/1 94/96/1 93/95/1 
f 60/60/1 62/62/1 95/97/1 94/96/1 
f 62/62/1 64/64/1 96/98/1 95/97/1 
f 64/64/1 4/66/1 66/99/1 96/98/1 
f 66/68/1 65/67/1 97/100/1 98/101/1 
f 65/67/1 67/69/1 99/102/1 97/100/1 
f 67/69/1 68/70/1 100/103/1 99/102/1 
f 68/70/1 69/71/1 101/104/1 100/103/1 
f 69/71/1 70/72/1 102/105/1 101/104/1 
f 70/72/1 71/73/1 103/106/1 102/105/1 
f 71/73/1 72/74/1 104/107/1 103/106/1 
f 72/74/1 73/75/1 105/108/1 104/107/1 
f 73/75/1 74/76/1 106/109/1 105/108/1 
f 74/76/1 75/77/1 107/110/1 106/109/1 
f 75/77/1 76/78/1 108/111/1 107/110/1 
f 76/78/1 77/79/1 109/112/1 108/111/1 
f 77/79/1 78/80/1 110/113/1 109/112/1 
f 78/80/1 79/81/1 111/114/1 110/113/1 
f 79/81/1 80/82/1 112/115/1 111/114/1 
f 80/82/1 81/83/1 113/116/1 112/115/1 
f 81/83/1 82/84/1 114/117/1 113/116/1 
f 82/84/1 83/85/1 115/118/1 114/117/1 
f 83/85/1 84/86/1 116/119/1 115/118/1 
f 84/86/1 85/87/1 117/120/1 116/119/1 
f 85/87/1 86/88/1 118/121/1 117/120/1 
f 86/88/1 87/89/1 119/122/1 118/121/1 
f 87/89/1 88/90/1 120/123/1 119/122/1 
f 88/90/1 89/91/1 121/124/1 120/123/1 
f 89/91/1 90/92/1 122/125/1 121/124/1 
f 90/92/1 91/93/1 123/126/1 122/125/1 
f 91/93/1 92/94/1 124/127/1 123/126/1 
f 92/94/1 93/95/1 125/128/1 124/127/1 
f 93/95/1 94/96/1 126/129/1 125/128/1 
f 94/96/1 95/97/1 127/130/1 126/129/1 
f 95/97/1 96/98/1 128/131/1 127/130/1 
f 96/98/1 66/99/1 98/132/1 128/131/1 
f 129/133/1 98/101/1 97/100/1 130/134/1 
f 130/134/1 97/100/1 99/102/1 131/135/1 
f 131/135/1 99/102/1 100/103/1 132/136/1 
f 132/136/1 100/103/1 101/104/1 133/137/1 
f 133/137/1 101/104/1 102/105/1 134/138/1 
f 134/138/1 102/105/1 103/106/1 135/139/1 
f 135/139/1 103/106/1 104/107/1 136/140/1 
f 136/140/1 104/107/1 105/108/1 137/141/1 
f 137/141/1 105/108/1 106/109/1 138/142/1 
f 138/142/1 106/109/1 107/110/1 139/143/1 
f 139/143/1 107/110/1 108/111/1 140/144/1 
f 140/144/1 108/111/1 109/112/1 141/145/1 
f 141/145/1 109/112/1 110/113/1 142/146/1 
f 142/146/1 110/113/1 111/114/1 143/147/1 
f 143/147/1 111/114/1 112/115/1 144/148/1 
f 144/148/1 112/115/1 113/116/1 145/149/1 
f 145/149/1 113/116/1 114/117/1 146/150/1 
f 146/150/1 114/117/1 115/118/1 147/151/1 
f 147/151/1 115/118/1 116/119/1 148/152/1 
f 148/152/1 116/119/1 117/120/1 149/153/1 
f 149/153/1 117/120/1 118/121/1 150/154/1 
f 150/154/1 118/121/1 119/122/1 151/155/1 
f 151/155/1 119/122/1 120/123/1 152/156/1 
f 152/156/1 120/123/1 121/124/1 153/157/1 
f 153/157/1 121/124/1 122/125/1 154/158/1 
f 154/158/1 122/125/1 123/126/1 155/159/1 
f 155/159/1 123/126/1 124/127/1 156/160/1 
f 156/160/1 124/127/1 125/128/1 157/161/1 
f 157/161/1 125/128/1 126/129/1 158/162/1 
f 158/162/1 126/129/1 127/130/1 159/163/1 
f 159/163/1 127/130/1 128/131/1 160/164/1 
f 160/164/1 128/131/1 98/132/1 129/165/1 
# 128 polygons

